# xmcd CD database file
#
# Track frame offsets:
#	150
#	9635
#	22901
#	34235
#	47191
#	61267
#	72287
#	86363
#	96054
#	109955
#	131921
#	145275
#	158343
#
# Disc length: 2296 seconds
#
# Revision: 1
# Processed by: cddbd v1.5.2PL0 Copyright (c) Steve Scherf et al.
# Submitted via: jetAudio 7
#
DISCID=a808f60d
DTITLE=Bobbyville - The Men Of 3M
DYEAR=2005
DGENRE=Country
TTITLE0=축구 봤냐?
TTITLE1=그녀는 감옥(나는 죄수)
TTITLE2=목만 축인다더니
TTITLE3=다시는 이원열과 마시지 않겠어(feat. 이원열)
TTITLE4=금연파괴범
TTITLE5=망신살
TTITLE6=뭐라도 기억이 나야
TTITLE7=428km
TTITLE8=맥주는 술이 아니야
TTITLE9=알콜로 얼룩진 성탄절
TTITLE10=그녀는 감옥(나는 죄수) MR
TTITLE11=다시는 이원열과 마시지 않겠어 MR
TTITLE12=맥주는 술이 아니야 MR
EXTD=
EXTT0=
EXTT1=
EXTT2=
EXTT3=
EXTT4=
EXTT5=
EXTT6=
EXTT7=
EXTT8=
EXTT9=
EXTT10=
EXTT11=
EXTT12=
PLAYORDER=
